<svg xmlns="http://www.w3.org/2000/svg" viewBox="0 0 332 98"><g class="graph"><path fill="#fff" stroke="transparent" d="M0 98V0h332v98H0z"/><g class="node" transform="translate(4 94)"><ellipse cx="27" cy="-49" fill="none" stroke="#000" rx="27" ry="18"/><text x="27" y="-45.3" font-family="Ubuntu" font-size="14" text-anchor="middle">a.js</text></g><g class="node" transform="translate(4 94)"><ellipse cx="117" cy="-26" fill="none" stroke="#000" rx="27" ry="18"/><text x="117" y="-22.3" font-family="Ubuntu" font-size="14" text-anchor="middle">b.js</text></g><g class="edge" transform="translate(4 94)"><path fill="none" stroke="#000" d="M52.51-42.59c9.06 2.36 19.5 5.09 29.27 7.64"/><path stroke="#000" d="M82.83-38.29l8.79 5.92-10.56.86 1.77-6.78z"/></g><g class="node" transform="translate(4 94)"><ellipse cx="207" cy="-72" fill="none" stroke="#000" rx="27" ry="18"/><text x="207" y="-68.3" font-family="Ubuntu" font-size="14" text-anchor="middle">c.js</text></g><g class="edge" transform="translate(4 94)"><path fill="none" stroke="#000" d="M53.88-52.34c30.67-3.97 81.95-10.59 116.39-15.04"/><path stroke="#000" d="M170.01-70.88l10.36 2.19-9.46 4.75-.9-6.94z"/></g><g class="edge" transform="translate(4 94)"><path fill="none" stroke="#000" d="M138.85-36.9c11.18-5.84 25.15-13.14 37.44-19.57"/><path stroke="#000" d="M174.81-59.65l10.48-1.53-7.24 7.74-3.24-6.21z"/></g><g class="node" transform="translate(4 94)"><ellipse cx="207" cy="-18" fill="none" stroke="#000" rx="27" ry="18"/><text x="207" y="-14.3" font-family="Ubuntu" font-size="14" text-anchor="middle">e.js</text></g><g class="edge" transform="translate(4 94)"><path fill="none" stroke="#000" d="M143.93-23.64c8.16.74 17.33 1.57 26.06 2.37"/><path stroke="#000" d="M170.31-24.76l9.64 4.39-10.27 2.58.63-6.97z"/></g><g class="node" transform="translate(4 94)"><ellipse cx="297" cy="-72" fill="none" stroke="#000" rx="27" ry="18"/><text x="297" y="-68.3" font-family="Ubuntu" font-size="14" text-anchor="middle">d.js</text></g><g class="edge" transform="translate(4 94)"><path fill="none" stroke="#000" d="M234.4-72h25.42"/><path stroke="#000" d="M259.92-75.5l10 3.5-10 3.5v-7z"/></g></g></svg>