<svg xmlns="http://www.w3.org/2000/svg" viewBox="0 0 422 190"><g class="graph"><path fill="#fff" stroke="transparent" d="M0 190V0h422v190H0z"/><g class="node" transform="translate(4 186)"><ellipse cx="27" cy="-58" fill="none" stroke="#000" rx="27" ry="18"/><text x="27" y="-54.3" font-family="Ubuntu" font-size="14" text-anchor="middle">a.js</text></g><g class="node" transform="translate(4 186)"><ellipse cx="117" cy="-26" fill="none" stroke="#000" rx="27" ry="18"/><text x="117" y="-22.3" font-family="Ubuntu" font-size="14" text-anchor="middle">b.js</text></g><g class="edge" transform="translate(4 186)"><path fill="none" stroke="#000" d="M51.12-49.59c9.9 3.6 21.64 7.87 32.4 11.78"/><path stroke="#000" d="M84.83-41.06l8.2 6.71-10.59-.13 2.39-6.58z"/></g><g class="node" transform="translate(4 186)"><ellipse cx="207" cy="-72" fill="none" stroke="#000" rx="27" ry="18"/><text x="207" y="-68.3" font-family="Ubuntu" font-size="14" text-anchor="middle">c.js</text></g><g class="edge" transform="translate(4 186)"><path fill="none" stroke="#000" d="M53.88-60.04c30.59-2.4 81.66-6.42 116.09-9.13"/><path stroke="#000" d="M169.84-72.67l10.25 2.71-9.7 4.27-.55-6.98z"/></g><g class="edge" transform="translate(4 186)"><path fill="none" stroke="#000" d="M138.85-36.9c11.18-5.84 25.15-13.14 37.44-19.57"/><path stroke="#000" d="M174.81-59.65l10.48-1.53-7.24 7.74-3.24-6.21z"/></g><g class="node" transform="translate(4 186)"><ellipse cx="207" cy="-18" fill="none" stroke="#000" rx="27" ry="18"/><text x="207" y="-14.3" font-family="Ubuntu" font-size="14" text-anchor="middle">e.js</text></g><g class="edge" transform="translate(4 186)"><path fill="none" stroke="#000" d="M143.93-23.64c8.16.74 17.33 1.57 26.06 2.37"/><path stroke="#000" d="M170.31-24.76l9.64 4.39-10.27 2.58.63-6.97z"/></g><g class="node" transform="translate(4 186)"><ellipse cx="297" cy="-81" fill="none" stroke="#000" rx="27" ry="18"/><text x="297" y="-77.3" font-family="Ubuntu" font-size="14" text-anchor="middle">d.js</text></g><g class="edge" transform="translate(4 186)"><path fill="none" stroke="#000" d="M233.93-74.65c8.23-.84 17.49-1.79 26.29-2.69"/><path stroke="#000" d="M259.95-80.83l10.31 2.46-9.59 4.5-.72-6.96z"/></g><g class="node" transform="translate(4 186)"><ellipse cx="387" cy="-58" fill="none" stroke="#000" rx="27" ry="18"/><text x="387" y="-54.3" font-family="Ubuntu" font-size="14" text-anchor="middle">f.js</text></g><g class="edge" transform="translate(4 186)"><path fill="none" stroke="#000" d="M322.51-74.59c9.06 2.36 19.5 5.09 29.27 7.64"/><path stroke="#000" d="M352.83-70.29l8.79 5.92-10.56.86 1.77-6.78z"/></g><g class="edge" transform="translate(4 186)"><path fill="none" stroke="#000" d="M360.06-54.52c-23.6 2.55-59.34 4.89-90.06.52-9.62-1.37-19.83-3.87-29.13-6.59"/><path stroke="#000" d="M239.73-57.28l-8.52-6.29 10.59-.39-2.07 6.68z"/></g><g class="node" transform="translate(4 186)"><ellipse cx="27" cy="-131" fill="none" stroke="#000" rx="27" ry="18"/><text x="27" y="-127.3" font-family="Ubuntu" font-size="14" text-anchor="middle">g.js</text></g><g class="node" transform="translate(4 186)"><ellipse cx="117" cy="-164" fill="none" stroke="#000" rx="27" ry="18"/><text x="117" y="-160.3" font-family="Ubuntu" font-size="14" text-anchor="middle">h.js</text></g><g class="edge" transform="translate(4 186)"><path fill="none" stroke="#000" d="M51.12-139.67c9.9-3.71 21.64-8.12 32.4-12.15"/><path stroke="#000" d="M82.44-155.15l10.59-.24-8.13 6.79-2.46-6.55z"/></g><g class="node" transform="translate(4 186)"><ellipse cx="207" cy="-154" fill="none" stroke="#000" rx="27" ry="18"/><text x="207" y="-150.3" font-family="Ubuntu" font-size="14" text-anchor="middle">i.js</text></g><g class="edge" transform="translate(4 186)"><path fill="none" stroke="#000" d="M143.93-161.05c8.23.93 17.49 1.98 26.29 2.98"/><path stroke="#000" d="M170.72-161.53l9.54 4.6-10.33 2.35.79-6.95z"/></g><g class="edge" transform="translate(4 186)"><path fill="none" stroke="#000" d="M182.42-146.24c-11.47 3.43-25.53 7.16-38.42 9.24-26.42 4.25-56.61 5.71-79.57 6.13"/><path stroke="#000" d="M64.47-127.37l-10.04-3.38 9.96-3.62.08 7z"/></g><g class="node" transform="translate(4 186)"><ellipse cx="297" cy="-154" fill="none" stroke="#000" rx="27" ry="18"/><text x="297" y="-150.3" font-family="Ubuntu" font-size="14" text-anchor="middle">j.js</text></g><g class="edge" transform="translate(4 186)"><path fill="none" stroke="#000" d="M234.4-154h25.42"/><path stroke="#000" d="M259.92-157.5l10 3.5-10 3.5v-7z"/></g></g></svg>