<svg xmlns="http://www.w3.org/2000/svg" viewBox="0 0 422 190"><g class="graph"><path fill="#fff" stroke="transparent" d="M0 190V0h422v190H0z"/><g class="node" transform="translate(4 186)"><ellipse cx="27" cy="-58" fill="none" stroke="#000" rx="27" ry="18"/><text x="27" y="-54.3" font-family="Ubuntu" font-size="14" text-anchor="middle">a.js</text></g><g class="node" transform="translate(4 186)"><ellipse cx="117" cy="-26" fill="none" stroke="#000" rx="27" ry="18"/><text x="117" y="-22.3" font-family="Ubuntu" font-size="14" text-anchor="middle">b.js</text></g><g class="edge" transform="translate(4 186)"><path fill="none" stroke="#000" d="M51.12-49.59c9.9 3.6 21.64 7.87 32.4 11.78"/><path stroke="#000" d="M84.83-41.06l8.2 6.71-10.59-.13 2.39-6.58z"/></g><g class="node" transform="translate(4 186)"><ellipse cx="207" cy="-72" fill="none" stroke="#000" rx="27" ry="18"/><text x="207" y="-68.3" font-family="Ubuntu" font-size="14" text-anchor="middle">c.js</text></g><g class="edge" transform="translate(4 186)"><path fill="none" stroke="#000" d="M53.88-60.04c30.59-2.4 81.66-6.42 116.09-9.13"/><path stroke="#000" d="M169.84-72.67l10.25 2.71-9.7 4.27-.55-6.98z"/></g><g class="edge" transform="translate(4 186)"><path fill="none" stroke="#000" d="M138.85-36.9c11.18-5.84 25.15-13.14 37.44-19.57"/><path stroke="#000" d="M174.81-59.65l10.48-1.53-7.24 7.74-3.24-6.21z"/></g><g class="node" transform="translate(4 186)"><ellipse cx="207" cy="-18" fill="none" stroke="#000" rx="27" ry="18"/><text x="207" y="-14.3" font-family="Ubuntu" font-size="14" text-anchor="middle">e.js</text></g><g class="edge" transform="translate(4 186)"><path fill="none" stroke="#000" d="M143.93-23.64c8.16.74 17.33 1.57 26.06 2.37"/><path stroke="#000" d="M170.31-24.76l9.64 4.39-10.27 2.58.63-6.97z"/></g><g class="node" transform="translate(4 186)"><ellipse cx="297" cy="-95" fill="none" stroke="#000" rx="27" ry="18"/><text x="297" y="-91.3" font-family="Ubuntu" font-size="14" text-anchor="middle">d.js</text></g><g class="edge" transform="translate(4 186)"><path fill="none" stroke="#000" d="M232.51-78.41c9.06-2.36 19.5-5.09 29.27-7.64"/><path stroke="#000" d="M261.06-89.49l10.56.86-8.79 5.92-1.77-6.78z"/></g><g class="node" transform="translate(4 186)"><ellipse cx="387" cy="-72" fill="none" stroke="#000" rx="27" ry="18"/><text x="387" y="-68.3" font-family="Ubuntu" font-size="14" text-anchor="middle">f.js</text></g><g class="edge" transform="translate(4 186)"><path fill="none" stroke="#000" d="M322.51-88.59c9.06 2.36 19.5 5.09 29.27 7.64"/><path stroke="#000" d="M352.83-84.29l8.79 5.92-10.56.86 1.77-6.78z"/></g><g class="edge" transform="translate(4 186)"><path fill="none" stroke="#000" d="M360.08-69.95c-11.11.78-24.22 1.57-36.08 1.95-23.99.77-30.01.77-54 0-8.43-.27-17.5-.75-26.02-1.28"/><path stroke="#000" d="M243.67-65.8l-9.75-4.15 10.21-2.83-.46 6.98z"/></g><g class="node" transform="translate(4 186)"><ellipse cx="27" cy="-131" fill="none" stroke="#000" rx="27" ry="18"/><text x="27" y="-127.3" font-family="Ubuntu" font-size="14" text-anchor="middle">g.js</text></g><g class="node" transform="translate(4 186)"><ellipse cx="117" cy="-164" fill="none" stroke="#000" rx="27" ry="18"/><text x="117" y="-160.3" font-family="Ubuntu" font-size="14" text-anchor="middle">h.js</text></g><g class="edge" transform="translate(4 186)"><path fill="none" stroke="#000" d="M51.12-139.67c9.9-3.71 21.64-8.12 32.4-12.15"/><path stroke="#000" d="M82.44-155.15l10.59-.24-8.13 6.79-2.46-6.55z"/></g><g class="node" transform="translate(4 186)"><ellipse cx="207" cy="-145" fill="none" stroke="#000" rx="27" ry="18"/><text x="207" y="-141.3" font-family="Ubuntu" font-size="14" text-anchor="middle">i.js</text></g><g class="edge" transform="translate(4 186)"><path fill="none" stroke="#000" d="M142.98-158.61c8.73 1.89 18.7 4.04 28.1 6.07"/><path stroke="#000" d="M171.92-155.94l9.04 5.53-10.52 1.31 1.48-6.84z"/></g><g class="edge" transform="translate(4 186)"><path fill="none" stroke="#000" d="M180.41-141.25C169.25-139.73 156-138.08 144-137c-26.53 2.39-56.56 3.91-79.42 4.83"/><path stroke="#000" d="M64.43-128.67l-10.13-3.12 9.86-3.87.27 6.99z"/></g></g></svg>