<svg xmlns="http://www.w3.org/2000/svg" viewBox="0 0 422 144"><g class="graph"><path fill="#fff" stroke="transparent" d="M0 144V0h422v144H0z"/><g class="node" transform="translate(4 140)"><ellipse cx="27" cy="-45" fill="none" stroke="#000" rx="27" ry="18"/><text x="27" y="-41.3" font-family="sans-serif" font-size="14" text-anchor="middle">a.js</text></g><g class="node" transform="translate(4 140)"><ellipse cx="117" cy="-26" fill="none" stroke="#000" rx="27" ry="18"/><text x="117" y="-22.3" font-family="sans-serif" font-size="14" text-anchor="middle">b.js</text></g><g class="edge" transform="translate(4 140)"><path fill="none" stroke="#000" d="M52.98-39.61c8.73 1.89 18.7 4.04 28.1 6.07"/><path stroke="#000" d="M81.92-36.94l9.04 5.53-10.52 1.31 1.48-6.84z"/></g><g class="node" transform="translate(4 140)"><ellipse cx="207" cy="-72" fill="none" stroke="#000" rx="27" ry="18"/><text x="207" y="-68.3" font-family="sans-serif" font-size="14" text-anchor="middle">c.js</text></g><g class="edge" transform="translate(4 140)"><path fill="none" stroke="#000" d="M53.5-48.87c30.67-4.65 82.32-12.48 116.9-17.73"/><path stroke="#000" d="M170.13-70.1l10.41 1.96-9.36 4.96-1.05-6.92z"/></g><g class="edge" transform="translate(4 140)"><path fill="none" stroke="#000" d="M138.85-36.9c11.18-5.84 25.15-13.14 37.44-19.57"/><path stroke="#000" d="M174.81-59.65l10.48-1.53-7.24 7.74-3.24-6.21z"/></g><g class="node" transform="translate(4 140)"><ellipse cx="207" cy="-18" fill="none" stroke="#000" rx="27" ry="18"/><text x="207" y="-14.3" font-family="sans-serif" font-size="14" text-anchor="middle">e.js</text></g><g class="edge" transform="translate(4 140)"><path fill="none" stroke="#000" d="M143.93-23.64c8.16.74 17.33 1.57 26.06 2.37"/><path stroke="#000" d="M170.31-24.76l9.64 4.39-10.27 2.58.63-6.97z"/></g><g class="node" transform="translate(4 140)"><ellipse cx="297" cy="-95" fill="none" stroke="#000" rx="27" ry="18"/><text x="297" y="-91.3" font-family="sans-serif" font-size="14" text-anchor="middle">d.js</text></g><g class="edge" transform="translate(4 140)"><path fill="none" stroke="#000" d="M232.51-78.41c9.06-2.36 19.5-5.09 29.27-7.64"/><path stroke="#000" d="M261.06-89.49l10.56.86-8.79 5.92-1.77-6.78z"/></g><g class="node" transform="translate(4 140)"><ellipse cx="387" cy="-72" fill="none" stroke="#000" rx="27" ry="18"/><text x="387" y="-68.3" font-family="sans-serif" font-size="14" text-anchor="middle">f.js</text></g><g class="edge" transform="translate(4 140)"><path fill="none" stroke="#000" d="M322.51-88.59c9.06 2.36 19.5 5.09 29.27 7.64"/><path stroke="#000" d="M352.83-84.29l8.79 5.92-10.56.86 1.77-6.78z"/></g><g class="edge" transform="translate(4 140)"><path fill="none" stroke="#000" d="M360.08-69.95c-11.11.78-24.22 1.57-36.08 1.95-23.99.77-30.01.77-54 0-8.43-.27-17.5-.75-26.02-1.28"/><path stroke="#000" d="M243.67-65.8l-9.75-4.15 10.21-2.83-.46 6.98z"/></g><g class="node" transform="translate(4 140)"><ellipse cx="27" cy="-118" fill="none" stroke="#000" rx="27" ry="18"/><text x="27" y="-114.3" font-family="sans-serif" font-size="14" text-anchor="middle">g.js</text></g><g class="node" transform="translate(4 140)"><ellipse cx="117" cy="-118" fill="none" stroke="#000" rx="27" ry="18"/><text x="117" y="-114.3" font-family="sans-serif" font-size="14" text-anchor="middle">h.js</text></g><g class="edge" transform="translate(4 140)"><path fill="none" stroke="#000" d="M54.4-118h25.42"/><path stroke="#000" d="M79.92-121.5l10 3.5-10 3.5v-7z"/></g></g></svg>