<svg xmlns="http://www.w3.org/2000/svg" viewBox="0 0 332 190"><g class="graph"><path fill="#fff" stroke="transparent" d="M0 190V0h332v190H0z"/><g class="node" transform="translate(4 186)"><ellipse cx="27" cy="-64" fill="none" stroke="#000" rx="27" ry="18"/><text x="27" y="-60.3" font-family="sans-serif" font-size="14" text-anchor="middle">a.js</text></g><g class="node" transform="translate(4 186)"><ellipse cx="117" cy="-18" fill="none" stroke="#000" rx="27" ry="18"/><text x="117" y="-14.3" font-family="sans-serif" font-size="14" text-anchor="middle">b.js</text></g><g class="edge" transform="translate(4 186)"><path fill="none" stroke="#000" d="M48.85-53.1C60.03-47.26 74-39.96 86.29-33.53"/><path stroke="#000" d="M88.05-36.56l7.24 7.74-10.48-1.53 3.24-6.21z"/></g><g class="node" transform="translate(4 186)"><ellipse cx="207" cy="-72" fill="none" stroke="#000" rx="27" ry="18"/><text x="207" y="-68.3" font-family="sans-serif" font-size="14" text-anchor="middle">c.js</text></g><g class="edge" transform="translate(4 186)"><path fill="none" stroke="#000" d="M45.64-77.22C57.5-85.26 73.86-94.76 90-99c23.21-6.1 30.5-4.89 54 0 11.06 2.3 22.57 6.69 32.62 11.27"/><path stroke="#000" d="M178.26-90.83l7.5 7.49-10.53-1.18 3.03-6.31z"/></g><g class="edge" transform="translate(4 186)"><path fill="none" stroke="#000" d="M137.53-29.98c11.85-7.28 27.17-16.68 40.31-24.74"/><path stroke="#000" d="M176.17-57.8l10.35-2.25-6.69 8.21-3.66-5.96z"/></g><g class="node" transform="translate(4 186)"><ellipse cx="207" cy="-18" fill="none" stroke="#000" rx="27" ry="18"/><text x="207" y="-14.3" font-family="sans-serif" font-size="14" text-anchor="middle">e.js</text></g><g class="edge" transform="translate(4 186)"><path fill="none" stroke="#000" d="M144.4-18h25.42"/><path stroke="#000" d="M169.92-21.5l10 3.5-10 3.5v-7z"/></g><g class="node" transform="translate(4 186)"><ellipse cx="297" cy="-72" fill="none" stroke="#000" rx="27" ry="18"/><text x="297" y="-68.3" font-family="sans-serif" font-size="14" text-anchor="middle">d.js</text></g><g class="edge" transform="translate(4 186)"><path fill="none" stroke="#000" d="M234.4-72h25.42"/><path stroke="#000" d="M259.92-75.5l10 3.5-10 3.5v-7z"/></g><g class="node" transform="translate(4 186)"><ellipse cx="117" cy="-72" fill="none" stroke="#000" rx="27" ry="18"/><text x="117" y="-68.3" font-family="sans-serif" font-size="14" text-anchor="middle">f.js</text></g><g class="edge" transform="translate(4 186)"><path fill="none" stroke="#000" d="M144.4-72h25.42"/><path stroke="#000" d="M169.92-75.5l10 3.5-10 3.5v-7z"/></g><g class="node" transform="translate(4 186)"><ellipse cx="27" cy="-164" fill="none" stroke="#000" rx="27" ry="18"/><text x="27" y="-160.3" font-family="sans-serif" font-size="14" text-anchor="middle">g.js</text></g><g class="node" transform="translate(4 186)"><ellipse cx="117" cy="-164" fill="none" stroke="#000" rx="27" ry="18"/><text x="117" y="-160.3" font-family="sans-serif" font-size="14" text-anchor="middle">h.js</text></g><g class="edge" transform="translate(4 186)"><path fill="none" stroke="#000" d="M54.4-164h25.42"/><path stroke="#000" d="M79.92-167.5l10 3.5-10 3.5v-7z"/></g></g></svg>